<?xml version="1.0" encoding="UTF-8"?> <svg xmlns="http://www.w3.org/2000/svg" xmlns:xlink="http://www.w3.org/1999/xlink" version="1.1" id="Layer_1" x="0px" y="0px" viewBox="0 0 120 113" style="enable-background:new 0 0 120 113;" xml:space="preserve"> <style type="text/css"> .st0{fill-rule:evenodd;clip-rule:evenodd;fill:url(#SVGID_1_);} .st1{fill-rule:evenodd;clip-rule:evenodd;fill:url(#SVGID_2_);} .st2{fill-rule:evenodd;clip-rule:evenodd;fill:url(#SVGID_3_);} .st3{fill-rule:evenodd;clip-rule:evenodd;fill:url(#SVGID_4_);} .st4{fill-rule:evenodd;clip-rule:evenodd;fill:url(#SVGID_5_);} .st5{fill:url(#SVGID_6_);} </style> <g> <linearGradient id="SVGID_1_" gradientUnits="userSpaceOnUse" x1="-47.4588" y1="41.6999" x2="158.9579" y2="41.6999"> <stop offset="0" style="stop-color:#804E2C"></stop> <stop offset="0.1695" style="stop-color:#E09D72"></stop> <stop offset="0.3925" style="stop-color:#F5B888"></stop> <stop offset="0.6479" style="stop-color:#F5E0D0"></stop> <stop offset="0.877" style="stop-color:#C88256"></stop> <stop offset="1" style="stop-color:#804E2C"></stop> </linearGradient> <path class="st0" d="M70.6,83.4L41.1,67C22.8,56.7,17.7,34.5,26,17.9C30.4,8.7,37.4,2.9,46.4,0c-8.5,4.2-15.1,10.2-18.9,18.5 c-8,15-3.3,37,14.4,47.2l27.7,15.5c2.3-1.7,2.9-4.6,6.9-5.2c2,0.3,3,1.2,3,2.6C79.8,79.9,75,82,70.6,83.4"></path> <linearGradient id="SVGID_2_" gradientUnits="userSpaceOnUse" x1="-47.4588" y1="41.6999" x2="158.9579" y2="41.6999"> <stop offset="0" style="stop-color:#804E2C"></stop> <stop offset="0.1695" style="stop-color:#E09D72"></stop> <stop offset="0.3925" style="stop-color:#F5B888"></stop> <stop offset="0.6479" style="stop-color:#F5E0D0"></stop> <stop offset="0.877" style="stop-color:#C88256"></stop> <stop offset="1" style="stop-color:#804E2C"></stop> </linearGradient> <path class="st1" d="M48.7,83.4L78.2,67c18.2-10.4,23.3-32.5,15.1-49.1C88.9,8.7,81.9,2.9,72.9,0C81.4,4.2,88,10.2,91.8,18.5 c8,15,3.3,37-14.4,47.2L49.7,81.2c-2.3-1.7-2.9-4.6-6.9-5.2c-2,0.3-3,1.2-3,2.6C39.5,79.9,44.3,82,48.7,83.4"></path> <linearGradient id="SVGID_3_" gradientUnits="userSpaceOnUse" x1="-47.4588" y1="34.766" x2="158.9579" y2="34.766"> <stop offset="0" style="stop-color:#804E2C"></stop> <stop offset="0.1695" style="stop-color:#E09D72"></stop> <stop offset="0.3925" style="stop-color:#F5B888"></stop> <stop offset="0.6479" style="stop-color:#F5E0D0"></stop> <stop offset="0.877" style="stop-color:#C88256"></stop> <stop offset="1" style="stop-color:#804E2C"></stop> </linearGradient> <path class="st2" d="M36.2,55.6c2.6,3.2,5.9,2.3,8.2,7c1.4,3.4,0.3,2.9,2.3,6.3C45,66,40.3,65.3,38.2,62 C36.2,58.2,37.3,58.1,36.2,55.6 M25.5,60.1c1.8,3.4,4.4,8.2,10.4,9.2c6.1,0.6,6-0.2,10.1,0.2c-3.6-0.4-7.9-4.2-11-5.6 C29.7,61.5,29.5,62.9,25.5,60.1 M30.3,46c1.3,3.9,4.7,4.2,5.2,9.4c0.2,3.7-0.8,2.8,0,6.7c-0.6-3.2-4.8-5.5-5.5-9.4 C29.4,48.4,30.4,48.7,30.3,46 M18.6,46.5c0.4,3.8,1.2,9.3,6.5,12.3c5.5,2.7,5.7,1.9,9.4,3.7c-3.2-1.6-5.9-6.7-8.4-9.1 C22.1,49.2,21.4,50.6,18.6,46.5 M28.1,34.9c-0.1,4.1,3,5.6,1.6,10.6c-1.1,3.5-1.7,2.3-2.4,6.2c0.5-3.2-2.6-6.8-1.9-10.7 C26.4,36.9,27.3,37.6,28.1,34.9 M17,31.3c-0.9,3.7-2.1,9.1,1.8,13.8c4.2,4.4,4.7,3.8,7.5,6.8c-2.5-2.6-3.2-8.3-4.7-11.4 C19.3,35.1,18.2,36.1,17,31.3 M20.3,16.6c-2.1,3.2-5,7.9-2.8,13.6c2.5,5.6,3.2,5.1,4.9,8.9c-1.5-3.3-0.3-8.9-0.7-12.3 C21.2,20.9,19.8,21.5,20.3,16.6 M29.9,23.8c-1.5,3.8,0.8,6.3-2.2,10.5c-2.3,2.9-2.4,1.6-4.4,5c1.6-2.8,0-7.3,2-10.7 C27.7,25.1,28.2,26,29.9,23.8 M28.4,7.3c-2.7,1.9-6.4,4.7-6.5,9.9c0.2,5.2,0.9,5.1,1,8.6c-0.1-3.1,2.6-7.1,3.4-10 C27.8,11.1,26.5,11.1,28.4,7.3 M33.6,15.3c-2.2,2.8-0.8,5.5-4.4,8.3c-2.6,1.9-2.4,0.8-4.9,3.2c2.1-2,1.7-6.1,4.3-8.5 C31.4,15.8,31.6,16.7,33.6,15.3 M36.1,2c-2.4,0.8-5.8,2-7.1,5.8c-1,3.9-0.5,4-1.2,6.6c0.6-2.3,3.6-4.7,4.8-6.6 C34.7,4.6,33.8,4.3,36.1,2 M40.2,8c-2.9,2-2.3,4.9-6.4,6.6c-2.9,1-2.4,0.1-5.4,1.6c2.5-1.3,3.3-5.2,6.3-6.8C38.1,7.9,38,8.8,40.2,8 M46.4,0c-6,1.9-10.7,2.2-12.3,7.8C38.6,8.6,42.5,3.4,46.4,0"></path> <linearGradient id="SVGID_4_" gradientUnits="userSpaceOnUse" x1="-47.4588" y1="34.766" x2="158.9579" y2="34.766"> <stop offset="0" style="stop-color:#804E2C"></stop> <stop offset="0.1695" style="stop-color:#E09D72"></stop> <stop offset="0.3925" style="stop-color:#F5B888"></stop> <stop offset="0.6479" style="stop-color:#F5E0D0"></stop> <stop offset="0.877" style="stop-color:#C88256"></stop> <stop offset="1" style="stop-color:#804E2C"></stop> </linearGradient> <path class="st3" d="M83.3,55.6c-2.6,3.2-5.9,2.3-8.2,7c-1.4,3.4-0.3,2.9-2.3,6.3c1.7-2.8,6.4-3.4,8.5-6.8 C83.3,58.2,82.2,58.1,83.3,55.6 M94,60.1c-1.8,3.4-4.4,8.2-10.4,9.2c-6.1,0.6-6-0.2-10.1,0.2c3.6-0.4,7.9-4.2,11-5.6 C89.8,61.5,90,62.9,94,60.1 M89.2,46c-1.3,3.9-4.7,4.2-5.2,9.4c-0.2,3.7,0.8,2.8,0,6.7c0.6-3.2,4.8-5.5,5.5-9.4 C90.1,48.4,89.1,48.7,89.2,46 M100.8,46.5c-0.4,3.8-1.2,9.3-6.5,12.3c-5.5,2.7-5.7,1.9-9.4,3.7c3.2-1.6,5.9-6.7,8.4-9.1 C97.3,49.2,98.1,50.6,100.8,46.5 M91.4,34.9c0.1,4.1-3,5.6-1.6,10.6c1.1,3.5,1.7,2.3,2.4,6.2c-0.5-3.2,2.6-6.8,1.9-10.7 C93,36.9,92.2,37.6,91.4,34.9 M102.4,31.3c0.9,3.7,2.1,9.1-1.8,13.8c-4.2,4.4-4.7,3.8-7.5,6.8c2.5-2.6,3.2-8.3,4.7-11.4 C100.1,35.1,101.3,36.1,102.4,31.3 M99.2,16.6c2.1,3.2,5,7.9,2.8,13.6c-2.5,5.6-3.2,5.1-4.9,8.9c1.5-3.3,0.3-8.9,0.7-12.3 C98.3,20.9,99.7,21.5,99.2,16.6 M89.5,23.8c1.5,3.8-0.8,6.3,2.2,10.5c2.3,2.9,2.4,1.6,4.4,5c-1.6-2.8,0-7.3-2-10.7 C91.8,25.1,91.2,26,89.5,23.8 M91,7.3c2.7,1.9,6.4,4.7,6.5,9.9c-0.2,5.2-0.9,5.1-1,8.6c0.1-3.1-2.6-7.1-3.4-10 C91.7,11.1,93,11.1,91,7.3 M85.9,15.3c2.2,2.8,0.8,5.5,4.4,8.3c2.6,1.9,2.4,0.8,4.9,3.2c-2.1-2-1.7-6.1-4.3-8.5 C88.1,15.8,87.8,16.7,85.9,15.3 M83.4,2c2.4,0.8,5.8,2,7.1,5.8c1,3.9,0.5,4,1.2,6.6c-0.6-2.3-3.6-4.7-4.8-6.6 C84.7,4.6,85.7,4.3,83.4,2 M79.2,8c2.9,2,2.3,4.9,6.4,6.6c2.9,1,2.4,0.1,5.4,1.6c-2.5-1.3-3.3-5.2-6.3-6.8 C81.4,7.9,81.4,8.8,79.2,8 M73.1,0c6,1.9,10.7,2.2,12.3,7.8C80.9,8.6,76.9,3.4,73.1,0"></path> <linearGradient id="SVGID_5_" gradientUnits="userSpaceOnUse" x1="-47.4588" y1="34.7999" x2="158.9579" y2="34.7999"> <stop offset="0" style="stop-color:#804E2C"></stop> <stop offset="0.1695" style="stop-color:#E09D72"></stop> <stop offset="0.3925" style="stop-color:#F5B888"></stop> <stop offset="0.6479" style="stop-color:#F5E0D0"></stop> <stop offset="0.877" style="stop-color:#C88256"></stop> <stop offset="1" style="stop-color:#804E2C"></stop> </linearGradient> <path class="st4" d="M59.8,18.4c1.1,0,2.1,0.1,3.1,0.3l-2.3,3.6c-0.3,0-0.5,0-0.8,0c-6.9,0-12.5,5.6-12.5,12.5s5.6,12.5,12.5,12.5 c4.3,0,8.1-2.2,10.3-5.5c0.9-1.2,1.4-2.4,1.8-3.7h-17l16.2-24.9c0.9,0.4,2.3,1.4,3.3,2.1l-12.2,19h13.9c0,0.7,0,1.4-0.1,2.2 c-0.1,1.7-0.6,3.5-1.5,5.4c-2.6,5.5-8.2,9.3-14.7,9.3c-9,0-16.3-7.3-16.3-16.3S50.8,18.4,59.8,18.4 M76.1,20.6l1.4,4.3H82l-3.7,2.7 l1.4,4.3L76,29.3L72.4,32l1.4-4.3L70.1,25h4.5L76.1,20.6z M59.8,10.4c2.7,0,5.3,0.4,7.8,1.3l-2.3,3.4c-1.7-0.5-3.6-0.7-5.5-0.7 c-11.2,0-20.4,9.1-20.4,20.4c0,11.2,9.1,20.4,20.4,20.4c10.1,0,18.5-7.4,20.1-17c0.2-1.4,0.3-2.7,0.3-3.8h3.9l0,0 c0,0.2,0,0.3,0,0.5c0,1.1-0.1,2.2-0.2,3.3l0,0l0,0c-1.6,11.9-11.8,21-24.1,21c-13.4,0-24.3-10.9-24.3-24.3 C35.5,21.3,46.4,10.4,59.8,10.4"></path> <linearGradient id="SVGID_6_" gradientUnits="userSpaceOnUse" x1="-47.4588" y1="106.1499" x2="158.9579" y2="106.1499"> <stop offset="0" style="stop-color:#804E2C"></stop> <stop offset="0.1695" style="stop-color:#E09D72"></stop> <stop offset="0.3925" style="stop-color:#F5B888"></stop> <stop offset="0.6479" style="stop-color:#F5E0D0"></stop> <stop offset="0.877" style="stop-color:#C88256"></stop> <stop offset="1" style="stop-color:#804E2C"></stop> </linearGradient> <path class="st5" d="M113.3,112.7V99.4h6.7v2.4h-4.3v3h4.1v2.4h-4.1v5.4L113.3,112.7L113.3,112.7z M105.4,112.7V99.4h2.5v10.9h4.1 v2.4C112,112.7,105.4,112.7,105.4,112.7z M96.5,101.6c-1.2,0-2.3,0.4-3.1,1.3c-0.9,0.9-1.3,1.9-1.3,3.2c0,1.2,0.4,2.3,1.3,3.2 c0.9,0.9,1.9,1.4,3.1,1.4s2.3-0.5,3.1-1.4c0.9-0.9,1.3-2,1.3-3.2s-0.4-2.3-1.3-3.2C98.8,102,97.8,101.6,96.5,101.6 M96.5,99.2 c1.9,0,3.5,0.7,4.9,2c1.3,1.4,2,3,2,4.9s-0.7,3.5-2,4.9c-1.4,1.3-3,2-4.9,2s-3.5-0.7-4.9-2s-2-3-2-4.9s0.7-3.5,2-4.9 C93,99.9,94.6,99.2,96.5,99.2 M88,103.3h-2.9c-0.4-0.5-0.9-1-1.5-1.3s-1.3-0.5-2-0.5c-0.6,0-1.1,0.1-1.6,0.3 c-0.5,0.2-1,0.5-1.4,0.9c-0.5,0.4-0.8,0.9-1.1,1.5c-0.3,0.6-0.4,1.2-0.4,1.8c0,0.3,0,0.5,0.1,0.8c0,0.1,0.1,0.3,0.1,0.4 s0.1,0.3,0.1,0.4c0.1,0.1,0.1,0.3,0.2,0.4s0.1,0.2,0.2,0.4c0.2,0.2,0.3,0.5,0.5,0.7c0.4,0.5,1,0.8,1.6,1.1c0.6,0.3,1.2,0.4,1.9,0.4 c0.8,0,1.5-0.2,2.2-0.7c0.7-0.4,1.3-1,1.6-1.7h-5.5v-2.3h8.6v0.3c0,1.9-0.7,3.5-2.1,4.9c-1.4,1.3-3,1.9-4.9,1.9s-3.6-0.7-5-2 s-2.1-3-2.1-4.9s0.7-3.6,2.1-4.9c1.4-1.4,3-2,5-2c1.4,0,2.7,0.4,3.8,1.1C86.7,101.1,87.5,102.1,88,103.3 M58,112.7V99.4h2.5v5.3 h4.7v-5.3h2.5v13.2h-2.5V107h-4.7v5.6L58,112.7L58,112.7z M44.8,112.7V99.4h2.8l5.5,9.7v-9.7h2.5v13.2h-2.7l-5.6-9.7v9.7 L44.8,112.7L44.8,112.7z M39.8,99.4h2.5v13.2h-2.5V99.4z M31.9,112.7V99.4h2.5v10.9h4.1v2.4C38.5,112.7,31.9,112.7,31.9,112.7z M26.9,99.4h2.5v13.2h-2.5V99.4z M14.7,112.7V99.4h2.5v5.3h4.7v-5.3h2.4v13.2h-2.4V107h-4.7v5.6L14.7,112.7L14.7,112.7z M10.2,109.1H13c-0.5,1.2-1.3,2.1-2.5,2.9c-1.1,0.7-2.4,1.1-3.7,1.1c-1.9,0-3.5-0.7-4.9-2.1c-1.3-1.4-2-3-2-4.9s0.7-3.5,2-4.8 s2.9-2,4.8-2c0.7,0,1.3,0.1,1.9,0.3c0.6,0.2,1.2,0.5,1.8,0.8c1.2,0.7,2,1.7,2.5,2.9h-2.8c-0.2-0.3-0.4-0.5-0.7-0.7 s-0.5-0.4-0.9-0.5c-0.6-0.3-1.3-0.4-1.9-0.4c-1.2,0-2.2,0.4-3.1,1.3s-1.3,2-1.3,3.2s0.4,2.2,1.3,3.1s1.9,1.3,3.1,1.3 c0.6,0,1.2-0.1,1.8-0.4C9.2,109.9,9.7,109.6,10.2,109.1"></path> </g> </svg> 